<svg width="24" height="24" viewBox="0 0 24 24" fill="none" xmlns="http://www.w3.org/2000/svg">
<g clip-path="url(#clip0)">
<path d="M23.9056 21.7338L22.258 16.9389C23.0505 15.337 23.4696 13.5514 23.4724 11.7548C23.4772 8.66099 22.2802 5.73557 20.1017 3.51764C17.9229 1.29929 15.0195 0.0506347 11.9265 0.00155672C10.306 -0.0244588 8.73349 0.274134 7.25037 0.888055C5.81988 1.48023 4.53706 2.33799 3.43756 3.43749C2.33802 4.53698 1.48025 5.81981 0.888129 7.25029C0.274208 8.73341 -0.0240567 10.3067 0.00158384 11.9264C0.0505681 15.0194 1.29927 17.9228 3.51762 20.1016C5.73125 22.2758 8.64911 23.4725 11.7363 23.4725C11.7423 23.4725 11.7487 23.4725 11.7548 23.4725C13.5514 23.4697 15.3369 23.0505 16.9389 22.2581L21.7338 23.9057C21.9182 23.9691 22.1072 24 22.2942 24C22.7383 24 23.1703 23.8255 23.4978 23.4978C23.9632 23.0324 24.1196 22.3565 23.9056 21.7338ZM22.4917 22.4917C22.4444 22.5389 22.3434 22.6105 22.1962 22.56L17.1152 20.8141C17.0401 20.7883 16.9619 20.7755 16.884 20.7755C16.7692 20.7755 16.6548 20.8033 16.5513 20.8581C15.0828 21.6349 13.4235 22.047 11.7525 22.0495C6.14862 22.0585 1.51307 17.5068 1.42428 11.9038C1.37961 9.08483 2.45192 6.43542 4.44369 4.44366C6.43545 2.45194 9.08407 1.37982 11.9039 1.4244C17.5068 1.51322 22.0582 6.14648 22.0494 11.7526C22.0468 13.4236 21.6348 15.083 20.858 16.5513C20.766 16.7252 20.7502 16.9293 20.814 17.1152L22.5599 22.1962C22.6105 22.3433 22.5389 22.4445 22.4917 22.4917Z" fill="black"/>
<path d="M11.6208 17.0038C11.2486 17.0038 10.8921 17.331 10.9093 17.7153C10.9265 18.1007 11.2219 18.4267 11.6208 18.4267C11.9929 18.4267 12.3494 18.0995 12.3322 17.7153C12.315 17.3298 12.0196 17.0038 11.6208 17.0038Z" fill="black"/>
<path d="M11.6208 5.9847C9.66893 5.9847 8.08099 7.57263 8.08099 9.52445C8.08099 9.91736 8.39956 10.2359 8.79246 10.2359C9.18537 10.2359 9.50393 9.91736 9.50393 9.52445C9.50393 8.35727 10.4536 7.40763 11.6208 7.40763C12.7879 7.40763 13.7376 8.35727 13.7376 9.52445C13.7376 10.6916 12.7879 11.6413 11.6208 11.6413C11.2278 11.6413 10.9093 11.9598 10.9093 12.3527V15.2545C10.9093 15.6474 11.2278 15.966 11.6208 15.966C12.0137 15.966 12.3322 15.6475 12.3322 15.2545V12.9924C13.9442 12.6621 15.1605 11.2327 15.1605 9.52445C15.1605 7.57263 13.5726 5.9847 11.6208 5.9847Z" fill="black"/>
</g>
<defs>
<clipPath id="clip0">
<rect width="24" height="24" fill="white"/>
</clipPath>
</defs>
</svg>
