<svg width="17" height="30" viewBox="0 0 17 30" fill="none" xmlns="http://www.w3.org/2000/svg">
<path fill-rule="evenodd" clip-rule="evenodd" d="M8.66672 18.2761L12.862 22.4714L13.8048 21.5286L8.00005 15.7238L2.19531 21.5286L3.13812 22.4714L7.33338 18.2761L7.33338 28H8.66672L8.66672 18.2761Z" fill="#353535"/>
<path d="M0 14H-1L-1 13H0L0 14ZM0 30L0 31H-1L-1 30H0ZM16 30H17V31H16V30ZM16 14V13H17V14H16ZM1 14L1 30H-1L-1 14H1ZM0 29L16 29V31L0 31L0 29ZM15 30L15 14H17L17 30H15ZM16 15L0 15L0 13L16 13V15Z" fill="white"/>
<path fill-rule="evenodd" clip-rule="evenodd" d="M8.96725 11.7303L8.96725 2.00641L7.63392 2.00641L7.63392 11.7303L3.43866 7.535L2.49585 8.47781L8.30059 14.2826L14.1053 8.47781L13.1625 7.535L8.96725 11.7303Z" fill="#353535"/>
</svg>
