<svg width="17" height="30" viewBox="0 0 17 30" fill="none" xmlns="http://www.w3.org/2000/svg">
<path fill-rule="evenodd" clip-rule="evenodd" d="M8.66672 25.7193L12.862 21.524L13.8048 22.4668L8.00005 28.2716L2.19531 22.4668L3.13812 21.524L7.33338 25.7193V15.9954H8.66672V25.7193Z" fill="#353535"/>
<path d="M0 29.9954H-1V30.9954H0L0 29.9954ZM0 13.9954L0 12.9954H-1V13.9954H0ZM16 13.9954H17V12.9954H16V13.9954ZM16 29.9954V30.9954H17V29.9954H16ZM1 29.9954L1 13.9954H-1L-1 29.9954H1ZM0 14.9954H16V12.9954H0L0 14.9954ZM15 13.9954V29.9954H17V13.9954H15ZM16 28.9954H0L0 30.9954H16V28.9954Z" fill="white"/>
<path fill-rule="evenodd" clip-rule="evenodd" d="M9.02511 4.27614V14H7.69178V4.27614L3.49652 8.4714L2.55371 7.5286L8.35845 1.72386L14.1632 7.5286L13.2204 8.4714L9.02511 4.27614Z" fill="#353535"/>
</svg>
