<svg width="26" height="26" viewBox="0 0 26 26" fill="none" xmlns="http://www.w3.org/2000/svg">
<path fill-rule="evenodd" clip-rule="evenodd" d="M0.5 10.5C0.5 16.0228 4.97715 20.5 10.5 20.5C12.8109 20.5 14.9387 19.7162 16.632 18.3998L23.3661 25.1339L25.1339 23.3661L18.3998 16.6321C19.7161 14.9387 20.5 12.8109 20.5 10.5C20.5 4.97715 16.0228 0.5 10.5 0.5C4.97715 0.5 0.5 4.97715 0.5 10.5ZM10.5 18C14.6421 18 18 14.6421 18 10.5C18 6.35786 14.6421 3 10.5 3C6.35786 3 3 6.35786 3 10.5C3 14.6421 6.35786 18 10.5 18ZM9.25 5.5V9.25H5.5V11.75H9.25V15.5H11.75V11.75H15.5V9.25H11.75V5.5H9.25Z" fill="#353535"/>
<path d="M16.632 18.3998L16.9856 18.0463L16.6736 17.7342L16.3252 18.0051L16.632 18.3998ZM23.3661 25.1339L23.0126 25.4874L23.3661 25.841L23.7197 25.4874L23.3661 25.1339ZM25.1339 23.3661L25.4874 23.7197L25.841 23.3661L25.4874 23.0126L25.1339 23.3661ZM18.3998 16.6321L18.0051 16.3252L17.7342 16.6736L18.0463 16.9856L18.3998 16.6321ZM9.25 9.25V9.75H9.75V9.25H9.25ZM9.25 5.5V5H8.75V5.5H9.25ZM5.5 9.25V8.75H5V9.25H5.5ZM5.5 11.75H5V12.25H5.5V11.75ZM9.25 11.75H9.75V11.25H9.25V11.75ZM9.25 15.5H8.75V16H9.25V15.5ZM11.75 15.5V16H12.25V15.5H11.75ZM11.75 11.75V11.25H11.25V11.75H11.75ZM15.5 11.75V12.25H16V11.75H15.5ZM15.5 9.25H16V8.75H15.5V9.25ZM11.75 9.25H11.25V9.75H11.75V9.25ZM11.75 5.5H12.25V5H11.75V5.5ZM10.5 20C5.25329 20 1 15.7467 1 10.5H0C0 16.299 4.70101 21 10.5 21V20ZM16.3252 18.0051C14.7165 19.2556 12.6959 20 10.5 20V21C12.9259 21 15.1609 20.1767 16.9389 18.7946L16.3252 18.0051ZM23.7197 24.7803L16.9856 18.0463L16.2785 18.7534L23.0126 25.4874L23.7197 24.7803ZM24.7803 23.0126L23.0126 24.7803L23.7197 25.4874L25.4874 23.7197L24.7803 23.0126ZM18.0463 16.9856L24.7803 23.7197L25.4874 23.0126L18.7534 16.2785L18.0463 16.9856ZM20 10.5C20 12.6959 19.2556 14.7165 18.0051 16.3252L18.7946 16.9389C20.1767 15.1609 21 12.9259 21 10.5H20ZM10.5 1C15.7467 1 20 5.25329 20 10.5H21C21 4.70101 16.299 0 10.5 0V1ZM1 10.5C1 5.25329 5.25329 1 10.5 1V0C4.70101 0 0 4.70101 0 10.5H1ZM17.5 10.5C17.5 14.366 14.366 17.5 10.5 17.5V18.5C14.9183 18.5 18.5 14.9183 18.5 10.5H17.5ZM10.5 3.5C14.366 3.5 17.5 6.63401 17.5 10.5H18.5C18.5 6.08172 14.9183 2.5 10.5 2.5V3.5ZM3.5 10.5C3.5 6.63401 6.63401 3.5 10.5 3.5V2.5C6.08172 2.5 2.5 6.08172 2.5 10.5H3.5ZM10.5 17.5C6.63401 17.5 3.5 14.366 3.5 10.5H2.5C2.5 14.9183 6.08172 18.5 10.5 18.5V17.5ZM9.75 9.25V5.5H8.75V9.25H9.75ZM5.5 9.75H9.25V8.75H5.5V9.75ZM6 11.75V9.25H5V11.75H6ZM9.25 11.25H5.5V12.25H9.25V11.25ZM9.75 15.5V11.75H8.75V15.5H9.75ZM11.75 15H9.25V16H11.75V15ZM11.25 11.75V15.5H12.25V11.75H11.25ZM15.5 11.25H11.75V12.25H15.5V11.25ZM15 9.25V11.75H16V9.25H15ZM11.75 9.75H15.5V8.75H11.75V9.75ZM11.25 5.5V9.25H12.25V5.5H11.25ZM9.25 6H11.75V5H9.25V6Z" fill="white"/>
</svg>
